<svg width="21" height="21" viewBox="0 0 21 21" fill="none" xmlns="http://www.w3.org/2000/svg">
<path d="M10.5234 5.08594C7.52344 5.08594 5.13281 7.52344 5.13281 10.4766C5.13281 13.4766 7.52344 15.8672 10.5234 15.8672C13.4766 15.8672 15.9141 13.4766 15.9141 10.4766C15.9141 7.52344 13.4766 5.08594 10.5234 5.08594ZM10.5234 13.9922C8.60156 13.9922 7.00781 12.4453 7.00781 10.4766C7.00781 8.55469 8.55469 7.00781 10.5234 7.00781C12.4453 7.00781 13.9922 8.55469 13.9922 10.4766C13.9922 12.4453 12.4453 13.9922 10.5234 13.9922ZM17.3672 4.89844C17.3672 4.19531 16.8047 3.63281 16.1016 3.63281C15.3984 3.63281 14.8359 4.19531 14.8359 4.89844C14.8359 5.60156 15.3984 6.16406 16.1016 6.16406C16.8047 6.16406 17.3672 5.60156 17.3672 4.89844ZM20.9297 6.16406C20.8359 4.47656 20.4609 2.97656 19.2422 1.75781C18.0234 0.539062 16.5234 0.164062 14.8359 0.0703125C13.1016 -0.0234375 7.89844 -0.0234375 6.16406 0.0703125C4.47656 0.164062 3.02344 0.539062 1.75781 1.75781C0.539062 2.97656 0.164062 4.47656 0.0703125 6.16406C-0.0234375 7.89844 -0.0234375 13.1016 0.0703125 14.8359C0.164062 16.5234 0.539062 17.9766 1.75781 19.2422C3.02344 20.4609 4.47656 20.8359 6.16406 20.9297C7.89844 21.0234 13.1016 21.0234 14.8359 20.9297C16.5234 20.8359 18.0234 20.4609 19.2422 19.2422C20.4609 17.9766 20.8359 16.5234 20.9297 14.8359C21.0234 13.1016 21.0234 7.89844 20.9297 6.16406ZM18.6797 16.6641C18.3516 17.6016 17.6016 18.3047 16.7109 18.6797C15.3047 19.2422 12.0234 19.1016 10.5234 19.1016C8.97656 19.1016 5.69531 19.2422 4.33594 18.6797C3.39844 18.3047 2.69531 17.6016 2.32031 16.6641C1.75781 15.3047 1.89844 12.0234 1.89844 10.4766C1.89844 8.97656 1.75781 5.69531 2.32031 4.28906C2.69531 3.39844 3.39844 2.69531 4.33594 2.32031C5.69531 1.75781 8.97656 1.89844 10.5234 1.89844C12.0234 1.89844 15.3047 1.75781 16.7109 2.32031C17.6016 2.64844 18.3047 3.39844 18.6797 4.28906C19.2422 5.69531 19.1016 8.97656 19.1016 10.4766C19.1016 12.0234 19.2422 15.3047 18.6797 16.6641Z" fill="black"/>
</svg>
