<svg width="21" height="21" viewBox="0 0 21 21" fill="none" xmlns="http://www.w3.org/2000/svg">
<path d="M4.6875 20.9531V6.9375H0.328125V20.9531H4.6875ZM2.48438 5.0625C3.89062 5.0625 5.01562 3.89062 5.01562 2.48438C5.01562 1.125 3.89062 0 2.48438 0C1.125 0 0 1.125 0 2.48438C0 3.89062 1.125 5.0625 2.48438 5.0625ZM20.9531 20.9531H21V13.2656C21 9.51562 20.1562 6.60938 15.75 6.60938C13.6406 6.60938 12.2344 7.78125 11.625 8.85938H11.5781V6.9375H7.40625V20.9531H11.7656V14.0156C11.7656 12.1875 12.0938 10.4531 14.3438 10.4531C16.5938 10.4531 16.6406 12.5156 16.6406 14.1562V20.9531H20.9531Z" fill="black"/>
</svg>
